<?xml version="1.0" standalone="no"?>
<!DOCTYPE svg PUBLIC "-//W3C//DTD SVG 20010904//EN"
 "http://www.w3.org/TR/2001/REC-SVG-20010904/DTD/svg10.dtd">
<svg version="1.0" xmlns="http://www.w3.org/2000/svg"
 width="500.000000pt" height="280.000000pt" viewBox="0 0 500.000000 280.000000"
 preserveAspectRatio="xMidYMid meet">
<metadata>
Created by potrace 1.15, written by Peter Selinger 2001-2017
</metadata>
<g transform="translate(0.000000,280.000000) scale(0.100000,-0.100000)"
fill="#000000" stroke="none">
<path d="M1812 2771 c-59 -20 -122 -75 -147 -127 -22 -48 -20 -148 6 -201 57
-118 207 -166 327 -104 75 39 122 119 122 211 0 104 -69 194 -171 224 -65 20
-72 20 -137 -3z"/>
<path d="M665 2649 c-98 -10 -225 -47 -308 -91 -36 -19 -91 -61 -132 -103 -58
-58 -74 -81 -94 -138 -20 -57 -23 -81 -19 -155 8 -133 55 -220 174 -316 47
-39 172 -100 459 -226 243 -107 340 -174 392 -274 23 -43 20 -146 -6 -230 -37
-120 -110 -198 -228 -242 -63 -24 -77 -25 -213 -22 -133 3 -150 5 -194 28 -56
29 -109 97 -127 162 -6 23 -14 72 -18 110 -4 43 -13 73 -22 79 -20 12 -250 11
-287 -2 -39 -13 -46 -34 -33 -102 36 -194 197 -334 471 -409 74 -20 106 -23
245 -22 434 3 692 126 782 373 23 62 27 92 28 175 0 140 -25 204 -120 304 -92
98 -130 122 -411 257 -375 182 -438 220 -487 294 -52 78 -32 174 48 235 74 57
91 59 470 65 430 7 405 -1 405 130 0 135 25 126 -369 127 -179 1 -362 -2 -406
-7z"/>
<path d="M2325 2640 c-21 -23 -32 -115 -21 -173 10 -53 29 -57 291 -57 270 0
316 -10 376 -78 89 -101 123 -272 79 -395 -22 -60 -58 -118 -90 -145 -55 -45
-64 -47 -345 -52 -148 -3 -275 -8 -281 -12 -24 -16 37 -217 96 -323 141 -249
365 -466 585 -565 111 -51 258 -98 394 -126 l126 -26 405 5 c357 4 417 7 509
25 372 74 536 259 519 583 -6 109 -22 152 -82 225 -92 112 -142 144 -506 325
-436 218 -463 240 -445 369 6 40 16 60 52 101 72 79 126 102 256 107 102 4
110 3 163 -24 30 -15 69 -44 85 -63 16 -20 43 -52 58 -71 l29 -35 122 -3 c68
-2 138 -1 156 3 31 5 34 9 34 43 0 20 -13 64 -29 97 -48 104 -165 191 -336
251 -77 28 -87 29 -265 28 -169 0 -193 -3 -285 -27 -250 -68 -384 -192 -417
-387 -16 -91 -1 -181 39 -247 53 -86 211 -200 343 -248 19 -7 80 -34 135 -60
407 -192 455 -225 506 -341 40 -92 8 -230 -71 -313 -125 -131 -387 -188 -812
-178 -183 4 -211 7 -281 30 -195 64 -349 182 -472 362 -49 72 -120 214 -111
223 3 2 46 8 95 13 225 21 401 131 481 302 50 106 64 191 57 333 -4 93 -10
124 -36 188 -59 148 -171 264 -306 318 l-80 33 -350 3 c-346 3 -351 3 -370
-18z"/>
<path d="M1754 2176 c-17 -8 -34 -21 -38 -31 -9 -24 -8 -1075 2 -1075 23 0
222 227 298 340 98 146 94 129 94 400 0 145 -4 250 -11 267 -15 40 -48 73 -94
94 -49 23 -203 26 -251 5z"/>
<path d="M2012 1317 c-74 -94 -187 -211 -269 -279 -24 -19 -33 -35 -33 -57 0
-17 4 -31 8 -31 17 0 137 95 214 168 44 42 102 105 129 141 42 57 49 72 49
114 0 26 -4 47 -8 47 -5 0 -45 -46 -90 -103z"/>
<path d="M2064 1139 c-37 -41 -294 -225 -337 -242 -12 -4 -17 -18 -17 -43 0
-29 8 -44 38 -74 46 -46 93 -60 197 -59 160 2 165 10 165 262 0 188 -4 202
-46 156z"/>
<path d="M275 515 c-43 -42 -28 -89 39 -125 25 -13 46 -28 46 -31 0 -18 -33
-31 -66 -26 -42 7 -59 -17 -29 -39 41 -30 130 -3 141 43 11 44 -4 73 -50 93
-41 17 -62 41 -49 54 4 3 23 6 44 6 25 0 39 5 43 17 16 40 -81 47 -119 8z"/>
<path d="M1205 528 c-3 -8 -4 -66 -3 -129 3 -106 4 -114 23 -114 18 0 20 8 23
68 2 37 7 67 11 67 5 0 26 -29 47 -65 36 -60 66 -86 82 -70 9 9 16 200 8 231
-4 15 -14 24 -26 24 -17 0 -19 -8 -22 -72 l-3 -72 -45 70 c-45 69 -83 94 -95
62z"/>
<path d="M1830 522 c-75 -37 -92 -153 -30 -206 34 -28 92 -40 135 -28 29 8 30
10 33 75 l3 67 -46 0 c-41 0 -45 -2 -45 -25 0 -18 5 -25 20 -25 15 0 20 -7 20
-25 0 -21 -5 -25 -28 -25 -63 0 -98 94 -52 140 20 20 26 22 90 24 23 1 36 6
38 17 6 32 -83 39 -138 11z"/>
<path d="M2405 528 c-55 -158 -75 -232 -65 -242 16 -16 43 5 52 42 8 28 13 32
42 32 30 0 36 -4 50 -40 16 -40 42 -53 52 -26 3 8 -12 66 -33 128 -36 104 -41
113 -66 116 -16 2 -29 -2 -32 -10z"/>
<path d="M2907 533 c-4 -3 -7 -57 -7 -118 0 -88 3 -115 15 -125 24 -20 48 6
43 47 -4 30 2 38 24 34 24 -3 61 23 74 54 17 42 10 80 -19 100 -22 15 -118 21
-130 8z"/>
<path d="M3480 527 c-80 -40 -76 -199 6 -233 71 -30 131 -3 159 69 25 65 2
137 -52 165 -28 16 -81 15 -113 -1z m104 -59 c36 -51 8 -138 -44 -138 -35 0
-70 41 -70 80 0 66 80 107 114 58z"/>
<path d="M4024 527 c-2 -7 -3 -65 -2 -128 3 -106 4 -114 23 -114 17 0 20 8 23
48 3 42 6 48 24 45 14 -2 26 -17 37 -48 12 -33 22 -45 36 -45 16 0 20 6 17 33
-1 19 -9 46 -17 62 -13 25 -13 29 0 40 16 13 20 67 7 86 -21 33 -137 49 -148
21z"/>
<path d="M4554 527 c-2 -7 -3 -65 -2 -128 l3 -114 70 0 c64 0 70 2 73 22 3 20
-2 22 -45 25 -44 3 -48 5 -51 30 -3 25 0 27 40 30 35 2 44 7 46 25 3 19 -2 22
-40 25 -36 2 -44 7 -46 26 -3 20 1 22 41 22 36 0 46 4 50 19 7 28 1 31 -70 31
-43 0 -65 -4 -69 -13z"/>
<path d="M1982 190 c-13 -6 -29 -25 -37 -43 -26 -64 10 -127 73 -127 52 0 86
72 62 131 -19 45 -50 58 -98 39z"/>
<path d="M3992 108 l3 -83 29 -3 c72 -9 127 53 105 117 -14 39 -35 51 -94 51
l-46 0 3 -82z"/>
</g>
</svg>
